<svg id="Layer_1" height="512" viewBox="0 0 128 128" width="512" xmlns="http://www.w3.org/2000/svg" data-name="Layer 1"><circle cx="52.457" cy="62.733" fill="#fed943" r="25.553"/><path d="m52.457 37.18c-.193 0-.383.01-.575.015v51.077c.192 0 .382.015.575.015a25.553 25.553 0 1 0 0-51.106z" fill="#fbbe2c"/><g fill="#ff8200"><path d="m52.458 20.526a1.75 1.75 0 0 0 -1.75 1.75v7.78a1.75 1.75 0 1 0 3.5 0v-7.78a1.75 1.75 0 0 0 -1.75-1.75z"/><path d="m21.53 62.733a1.75 1.75 0 0 0 -1.75-1.75h-7.78a1.75 1.75 0 0 0 0 3.5h7.78a1.75 1.75 0 0 0 1.75-1.75z"/><path d="m87.941 27.249a1.749 1.749 0 0 0 -2.475 0l-11.14 11.141a1.75 1.75 0 1 0 2.474 2.474l11.141-11.14a1.749 1.749 0 0 0 0-2.475z"/><path d="m28.114 84.6-11.141 11.143a1.75 1.75 0 1 0 2.475 2.475l11.14-11.141a1.75 1.75 0 1 0 -2.474-2.477z"/><path d="m19.448 27.249a1.75 1.75 0 0 0 -2.475 2.475l11.141 11.14a1.75 1.75 0 1 0 2.475-2.475z"/></g><path d="m98.8 66.614a20.207 20.207 0 0 0 -38.8 7.9c0 .454.038.9.068 1.345a15.1 15.1 0 1 0 -3.157 29.861h39.45a19.631 19.631 0 0 0 2.439-39.106z" fill="#24d7de"/><path d="m34.846 64.483a1.75 1.75 0 0 1 -1.75-1.75 19.383 19.383 0 0 1 19.362-19.361 1.75 1.75 0 0 1 0 3.5 15.88 15.88 0 0 0 -15.858 15.861 1.75 1.75 0 0 1 -1.754 1.75z" fill="#e7ffff"/><path d="m98.8 66.614a20.08 20.08 0 0 0 -22.112-11.976v51.085h19.673a19.631 19.631 0 0 0 2.439-39.109z" fill="#1cabdd"/></svg>