<svg height="512" viewBox="0 0 256 256" width="512" xmlns="http://www.w3.org/2000/svg"><path d="m186.145 146.5a59.569 59.569 0 1 0 -116.29 0z" fill="#ffea92"/><path d="m83.31 134.5c-.006-.292-.009-.583-.009-.875a44.7 44.7 0 0 1 89.4 0c0 .292 0 .583-.009.875z" fill="#eaa97d"/><path d="m128 23.5a6.01 6.01 0 0 0 -6 6v31.143a6 6 0 1 0 12.008 0v-31.143a6.01 6.01 0 0 0 -6.008-6z" fill="#ffea92"/><path d="m81.572 70.24-22.019-22.018a6 6 0 1 0 -8.49 8.49l22.019 22.018a6 6 0 0 0 8.49-8.49z" fill="#ffea92"/><path d="m203.158 48.222a6 6 0 0 0 -8.491 0l-22.019 22.018a6 6 0 1 0 8.491 8.49l22.019-22.018a6.011 6.011 0 0 0 0-8.49z" fill="#ffea92"/><path d="m232.1 105.8h-31.14a6 6 0 1 0 0 12.007h31.14a6 6 0 0 0 0-12.007z" fill="#ffea92"/><path d="m55.044 105.8h-31.144a6 6 0 0 0 0 12.007h31.14a6 6 0 1 0 0-12.007z" fill="#ffea92"/><path d="m186.145 148.5h-116.29a2 2 0 0 1 -1.952-1.567 61.569 61.569 0 1 1 120.194 0 2 2 0 0 1 -1.952 1.567zm-114.662-4h113.034a57.569 57.569 0 1 0 -113.034 0z" fill="#3762cc"/><path d="m8 134.5h240a0 0 0 0 1 0 0v88a10 10 0 0 1 -10 10h-220a10 10 0 0 1 -10-10v-88a0 0 0 0 1 0 0z" fill="#a4c9ff"/><path d="m236.1 141.75a7.25 7.25 0 0 0 -7.25-7.25h-201.699a7.25 7.25 0 0 0 -7.25 7.25 7.25 7.25 0 0 0 7.25 7.25h36.6a3.75 3.75 0 0 1 3.75 3.75 3.75 3.75 0 0 1 -3.75 3.75h-8.5a7.25 7.25 0 0 0 -7.251 7.25 7.25 7.25 0 0 0 7.25 7.25h13a3.75 3.75 0 0 1 3.75 3.75v2.5a3.75 3.75 0 0 0 3.75 3.75h104.5a3.75 3.75 0 0 0 3.75-3.75v-2.5a3.75 3.75 0 0 1 3.75-3.75h13a7.25 7.25 0 0 0 7.25-7.25 7.25 7.25 0 0 0 -7.25-7.25h-8.5a3.75 3.75 0 0 1 -3.75-3.75 3.75 3.75 0 0 1 3.75-3.75h36.6a7.25 7.25 0 0 0 7.25-7.25z" fill="#ffea92"/><g fill="#3762cc"><path d="m238 234.5h-220a12.013 12.013 0 0 1 -12-12v-88a2 2 0 0 1 2-2h240a2 2 0 0 1 2 2v88a12.013 12.013 0 0 1 -12 12zm-228-98v86a8.009 8.009 0 0 0 8 8h220a8.009 8.009 0 0 0 8-8v-86z"/><path d="m128 68.647a8.012 8.012 0 0 1 -8-8v-31.147a8 8 0 1 1 16 0v31.14a8.012 8.012 0 0 1 -8 8.007zm0-43.147a4.008 4.008 0 0 0 -4 4v31.14a4 4 0 0 0 8.008 0v-31.14a4.008 4.008 0 0 0 -4.008-4z"/><path d="m77.327 82.489a7.953 7.953 0 0 1 -5.659-2.344l-22.019-22.019a8 8 0 1 1 11.318-11.318l22.019 22.018a8 8 0 0 1 -5.659 13.663zm-22.019-34.026a4 4 0 0 0 -2.83 6.835l22.022 22.018a4 4 0 0 0 5.662-5.662l-22.023-22.018a3.979 3.979 0 0 0 -2.831-1.173z"/><path d="m176.894 82.489a8 8 0 0 1 -5.66-13.663l22.019-22.018a8 8 0 0 1 11.32 11.318l-22.02 22.019a7.955 7.955 0 0 1 -5.659 2.344zm22.019-34.026a3.977 3.977 0 0 0 -2.831 1.173l-22.02 22.018a4 4 0 1 0 5.663 5.662l22.019-22.016a4.01 4.01 0 0 0 0-5.662 3.981 3.981 0 0 0 -2.831-1.175z"/><path d="m232.1 119.81h-31.14a8 8 0 1 1 0-16.008h31.14a8 8 0 0 1 0 16.008zm-31.144-12.01a4 4 0 1 0 0 8.008h31.144a4 4 0 0 0 0-8.008z"/><path d="m55.044 119.81h-31.144a8 8 0 0 1 0-16.008h31.14a8 8 0 1 1 0 16.008zm-31.144-12.01a4 4 0 0 0 0 8.008h31.14a4 4 0 1 0 0-8.008z"/></g></svg>